<svg width="24" height="24" viewBox="0 0 24 24" fill="none" xmlns="http://www.w3.org/2000/svg">
<g clip-path="url(#clip0_218_6717)">
<path d="M11.9983 19.6001C16.1956 19.6001 19.5981 16.1975 19.5981 12.0002C19.5981 7.80295 16.1956 4.40039 11.9983 4.40039C7.801 4.40039 4.39844 7.80295 4.39844 12.0002C4.39844 16.1975 7.801 19.6001 11.9983 19.6001Z" fill="#00BA00"/>
<path d="M12.0016 23.3993C5.7155 23.3993 0.601562 18.2854 0.601562 11.9995C0.601562 5.71355 5.7155 0.599609 12.0016 0.599609C18.2876 0.599609 23.4016 5.71354 23.4016 11.9995C23.4016 18.2854 18.2876 23.3993 12.0016 23.3993ZM12.0016 2.41727C6.71781 2.41727 2.41922 6.71586 2.41922 11.9995C2.41922 17.2831 6.71781 21.5817 12.0016 21.5817C17.2853 21.5817 21.5839 17.2831 21.5839 11.9995C21.5839 6.71586 17.2853 2.41727 12.0016 2.41727Z" fill="#00BA00"/>
</g>
<defs>
<clipPath id="clip0_218_6717">
<rect width="24" height="24" fill="white"/>
</clipPath>
</defs>
</svg>
