<svg xmlns="http://www.w3.org/2000/svg" width="512" height="512" id="slot">
  <path fill="#FFCE54" d="m414.337 140.736-50.343-72.999-103.662-51.67-56.335-2-79.327 20.671s-68.999 67.671-69.999 67.327S25 186.392 25 186.392l-8 269.636 29.672 2.656 380.664-1.641V326.701l-12.999-185.965z"></path>
  <path fill="#F5F7FA" d="M62.663 202.032h81.999v149.325H62.663zM186.755 202.673h81.999v149.325h-81.999zM300.339 199.329h81.999v149.325h-81.999z"></path>
  <path fill="#ED5565" d="M103.663 399.013h52.835v26.499h-52.835zM191.497 393.264h67.249v30.998h-67.249zM293.745 395.264h54.249v28.998h-54.249zM491.336 138.361c0 11.219-9.109 20.328-20.344 20.328s-20.344-9.109-20.344-20.328c0-11.234 9.109-20.343 20.344-20.343s20.344 9.109 20.344 20.343z"></path>
  <path fill="#656D78" d="M437.992 256h51.344v40.03h-51.344z"></path>
  <path fill="#434A54" d="M382.994 420.013H63.335l-5.664 38.671h329.667z"></path>
  <path fill="#656D78" d="M55.671 463.34h334.323v39.999H55.671z"></path>
  <path fill="#080808" d="M149.334 192.001H63.999c-5.891 0-10.664 4.766-10.664 10.672v149.325c0 5.891 4.773 10.672 10.664 10.672h85.335c5.891 0 10.663-4.781 10.663-10.672V202.673c0-5.906-4.772-10.672-10.663-10.672zm-10.672 149.325H74.663V213.329h63.999v127.997zm149.334-138.653v149.325c0 5.891 4.78 10.672 10.655 10.672h85.343c5.891 0 10.656-4.781 10.656-10.672V202.673c0-5.906-4.766-10.672-10.656-10.672h-85.343c-5.875 0-10.655 4.766-10.655 10.672zm21.343 10.656h63.999v127.998h-63.999V213.329zm-42.679-21.328h-85.327c-5.891 0-10.672 4.766-10.672 10.672v149.325c0 5.891 4.781 10.672 10.672 10.672h85.327c5.898 0 10.68-4.781 10.68-10.672V202.673c0-5.906-4.781-10.672-10.68-10.672zm-10.664 149.325h-63.999V213.329h63.999v127.997z"></path>
  <path fill="#080808" d="M90.522 266.672h14.68l-13.539 26.874c-2.648 5.25-.531 11.656 4.727 14.312a10.573 10.573 0 0 0 4.789 1.156c3.906 0 7.663-2.156 9.538-5.875l21.328-42.343c2.656-5.25.539-11.672-4.727-14.312-1.508-.781-3.125-1.125-4.711-1.141-.031 0-.055-.016-.086-.016H90.522c-5.891 0-10.664 4.781-10.664 10.672s4.774 10.673 10.664 10.673zm117.475 0h14.679l-13.538 26.874c-2.648 5.25-.531 11.656 4.726 14.312a10.573 10.573 0 0 0 4.789 1.156c3.906 0 7.664-2.156 9.539-5.875l21.328-42.343c2.656-5.25.539-11.672-4.727-14.312-1.516-.781-3.125-1.125-4.711-1.141-.031 0-.055-.016-.086-.016h-31.999c-5.891 0-10.664 4.781-10.664 10.672s4.773 10.673 10.664 10.673zm154.122-20.188c-1.5-.781-3.125-1.125-4.719-1.141-.016 0-.047-.016-.062-.016h-32c-5.906 0-10.687 4.781-10.687 10.672s4.78 10.672 10.687 10.672h14.672l-13.547 26.874c-2.656 5.25-.531 11.656 4.734 14.312a10.581 10.581 0 0 0 4.797 1.156c3.891 0 7.656-2.156 9.531-5.875l21.328-42.343c2.641-5.248.532-11.67-4.734-14.311zm-138.123-107.81c5.891 0 10.664-4.781 10.664-10.671V42.676c0-5.891-4.773-10.672-10.664-10.672s-10.664 4.781-10.664 10.672v85.327c0 5.89 4.773 10.671 10.664 10.671zm-41.233 3.25c1.969 3.406 5.555 5.312 9.242 5.312 1.812 0 3.648-.453 5.328-1.422 5.102-2.953 6.844-9.469 3.898-14.578l-42.664-73.89c-2.944-5.109-9.468-6.859-14.569-3.906-5.102 2.953-6.852 9.469-3.906 14.578l42.671 73.906zm-4.953 23.406c2.945-5.094 1.195-11.625-3.906-14.562l-73.896-42.656c-5.102-2.968-11.625-1.219-14.57 3.891s-1.203 11.625 3.906 14.578l73.896 42.655a10.639 10.639 0 0 0 5.32 1.438c3.687-.001 7.273-1.907 9.25-5.344zm170.184-57.218-73.904 42.656c-5.102 2.938-6.852 9.468-3.906 14.562 1.969 3.438 5.562 5.344 9.25 5.344 1.812 0 3.641-.469 5.312-1.438l73.904-42.655c5.094-2.953 6.844-9.469 3.906-14.578s-9.468-6.859-14.562-3.891zm-97.334 37.702c1.68.984 3.516 1.422 5.328 1.422 3.68 0 7.266-1.906 9.242-5.312l42.671-73.905c2.938-5.109 1.188-11.625-3.906-14.578-5.094-2.953-11.625-1.203-14.562 3.906l-42.672 73.89c-2.952 5.109-1.202 11.624 3.899 14.577zm-19.125 32.391c4.172-4.156 4.172-10.906 0-15.078a10.647 10.647 0 0 0-15.078 0c-4.172 4.172-4.172 10.922 0 15.078a10.649 10.649 0 0 0 15.078 0z"></path>
  <path fill="#080808" d="M490.648 245.328h-10.656V168.83c12.406-4.406 21.344-16.25 21.344-30.156 0-17.656-14.375-32-32-32-17.656 0-32 14.344-32 32 0 13.906 8.906 25.75 21.312 30.156v76.499h-10.656c0-5.875-4.781-10.656-10.656-10.656v-21.344c0-56.967-22.202-110.544-62.498-150.841C334.557 22.208 280.98.005 223.996.005c-56.983 0-110.553 22.203-150.849 62.483-40.288 40.296-62.483 93.874-62.483 150.841v245.339c0 5.891 4.781 10.656 10.672 10.656h21.328v32c0 5.905 4.781 10.671 10.671 10.671H394.65c5.905 0 10.687-4.766 10.687-10.671v-32h21.312c5.906 0 10.688-4.766 10.688-10.656v-138.67c5.875 0 10.656-4.765 10.656-10.671h42.656c5.906 0 10.688-4.766 10.688-10.656V256c-.001-5.891-4.782-10.672-10.689-10.672zm-21.312-117.326c5.875 0 10.656 4.796 10.656 10.671s-4.781 10.656-10.656 10.656c-5.891 0-10.688-4.781-10.688-10.656s4.797-10.671 10.688-10.671zm-85.342 362.666H362.65c0-5.906-4.766-10.672-10.656-10.672s-10.656 4.766-10.656 10.672h-21.344c0-5.906-4.78-10.672-10.655-10.672-5.906 0-10.688 4.766-10.688 10.672h-127.99c0-5.906-4.773-10.672-10.664-10.672H95.999c-5.891 0-10.664 4.766-10.664 10.672H63.999v-21.344h319.995v21.344zM96.093 437.324h63.811c5.891 0 10.664-4.766 10.664-10.656h10.859c0 5.891 4.773 10.656 10.664 10.656h63.812c5.891 0 10.664-4.766 10.664-10.656h10.867a10.65 10.65 0 0 0 10.656 10.656h63.81a10.65 10.65 0 0 0 10.656-10.656h13.109l5.328 21.328H66.991l5.336-21.328h13.102c0 5.891 4.773 10.656 10.664 10.656zm10.671-21.327v-10.672h42.469v10.672h-42.469zm95.999 0v-10.672h42.468v10.672h-42.468zm95.998 0v-10.672h42.468v10.672h-42.468zm117.232 31.999h-13l-8.655-34.577c-1.188-4.75-5.453-8.094-10.344-8.094h-21.438V394.67c0-5.906-4.766-10.672-10.656-10.672h-63.81c-5.891 0-10.656 4.766-10.656 10.672v10.655h-10.867V394.67c0-5.906-4.773-10.672-10.664-10.672h-63.812c-5.891 0-10.664 4.766-10.664 10.672v10.655h-10.859V394.67c0-5.906-4.773-10.672-10.664-10.672H96.093c-5.891 0-10.664 4.766-10.664 10.672v10.655h-21.43c-4.891 0-9.164 3.344-10.352 8.094l-8.64 34.577H32V213.329c0-51.28 19.969-99.498 56.233-135.747 36.265-36.281 84.482-56.249 135.763-56.249 51.281 0 99.498 19.968 135.764 56.249 36.266 36.249 56.233 84.467 56.233 135.747v234.667zM479.992 288h-32v-21.328h32V288z"></path>
</svg>
